# xmcd
#
# Track frame offsets: 
#        300
#        20834
#        34239
#        50454
#        67267
#        87909
#        113694
#        133619
#        152884
#
# Disc length: 2404 seconds
#
# Revision: 0
# Processed by: cddbd v1.5.2PL0 Copyright (c) Steve Scherf et al.
# Submitted via: ExactAudioCopy v0.99pb3
#
DISCID=7e096009
DTITLE=Moody Blues - Every Good Boy Deserves Favour
DYEAR=1971
DGENRE=Blues
TTITLE0=Procession
TTITLE1=The Story In Your Eyes
TTITLE2=Our Guessing Game
TTITLE3=Emilys Song
TTITLE4=After You Came
TTITLE5=One More Time To Live
TTITLE6=Nice To Be Here
TTITLE7=You Can Never Go Home
TTITLE8=My Song
EXTD=
EXTT0=
EXTT1=
EXTT2=
EXTT3=
EXTT4=
EXTT5=
EXTT6=
EXTT7=
EXTT8=
PLAYORDER=
